<svg width="308" height="197" viewBox="0 0 308 197" fill="none" xmlns="http://www.w3.org/2000/svg">
<path d="M7.28 98.86V95.09L7.54 48.42C7.54 45.6467 7.32333 43.6967 6.89 42.57C6.54333 41.4433 5.50333 39.84 3.77 37.76H50.31V52.32L47.32 48.68C46.6267 47.8133 45.4567 46.9467 43.81 46.08C41.73 44.78 37.96 44.13 32.5 44.13H23.92V68.05H29.9C33.8 68.05 36.7467 67.66 38.74 66.88C40.82 66.1 42.6833 64.4967 44.33 62.07V80.53C42.0767 77.8433 40.17 76.1533 38.61 75.46C37.83 75.1133 36.79 74.8533 35.49 74.68C34.2767 74.5067 32.63 74.42 30.55 74.42H23.79V103.02H32.5C37.96 103.02 42.2067 102.37 45.24 101.07C48.2733 99.6833 50.2667 98.5567 51.22 97.69C51.6533 97.3433 52.26 96.6933 53.04 95.74C53.9067 94.7867 54.6867 93.8767 55.38 93.01L52.13 109H2.99C4.81 107.267 5.98 105.793 6.5 104.58C7.02 103.28 7.28 101.373 7.28 98.86ZM64.9198 98.86V95.09V48.16C64.9198 45.2133 64.7464 43.3067 64.3998 42.44C64.1398 41.5733 63.2298 40.0133 61.6698 37.76H84.9398C83.4664 39.58 82.4698 41.2267 81.9498 42.7C81.5164 44.1733 81.2998 45.9933 81.2998 48.16L81.6898 103.15H91.4398C94.0398 103.15 96.2498 103.02 98.0698 102.76C99.9764 102.5 101.71 102.023 103.27 101.33C106.216 99.9433 108.166 98.86 109.12 98.08C110.073 97.3 111.416 95.61 113.15 93.01L109.38 109H60.7598C62.4064 107.353 63.4898 105.88 64.0098 104.58C64.6164 103.193 64.9198 101.287 64.9198 98.86ZM118.996 98.86V95.35L119.126 48.42C119.126 45.56 118.996 43.6533 118.736 42.7C118.476 41.66 117.696 40.0133 116.396 37.76H138.886C137.586 39.9267 136.676 41.66 136.156 42.96C135.722 44.4333 135.506 46.2967 135.506 48.55V98.86C135.506 101.46 135.636 103.323 135.896 104.45C136.156 105.577 137.022 107.093 138.496 109H115.616C117.002 107.267 117.912 105.707 118.346 104.32C118.779 102.933 118.996 101.113 118.996 98.86ZM151.275 98.86L167.395 75.59L151.015 48.29C149.629 45.7767 148.372 43.9567 147.245 42.83C146.725 42.1367 146.075 41.4 145.295 40.62C144.515 39.7533 143.519 38.8 142.305 37.76H166.225C166.225 40.1867 166.355 41.8767 166.615 42.83C166.962 43.7833 167.915 45.6033 169.475 48.29L177.535 61.55L186.375 48.16L188.715 44.26C189.235 43.22 189.495 42.3533 189.495 41.66L188.715 37.76H205.355C202.669 39.6667 200.589 41.3567 199.115 42.83C198.335 43.61 197.512 44.5633 196.645 45.69C195.779 46.8167 195.172 47.64 194.825 48.16L181.305 67.92L199.765 98.86C200.199 99.64 200.675 100.42 201.195 101.2C202.062 102.5 202.799 103.54 203.405 104.32C204.099 105.1 205.009 105.967 206.135 106.92C206.742 107.44 207.565 108.133 208.605 109H184.295L184.425 106.66C184.425 105.447 184.252 104.363 183.905 103.41C183.645 102.37 182.822 100.853 181.435 98.86L171.425 81.57L159.725 98.86L157.255 102.89L156.345 105.23C156.345 106.01 156.779 107.267 157.645 109H139.705C142.825 107.267 145.079 105.75 146.465 104.45C147.939 103.15 149.542 101.287 151.275 98.86ZM212.814 98.86V95.35L212.944 48.42C212.944 45.56 212.814 43.6533 212.554 42.7C212.294 41.66 211.514 40.0133 210.214 37.76H232.704C231.404 39.9267 230.494 41.66 229.974 42.96C229.541 44.4333 229.324 46.2967 229.324 48.55V98.86C229.324 101.46 229.454 103.323 229.714 104.45C229.974 105.577 230.841 107.093 232.314 109H209.434C210.821 107.267 211.731 105.707 212.164 104.32C212.597 102.933 212.814 101.113 212.814 98.86ZM244.054 98.86V48.03C244.054 45.17 243.88 43.2633 243.534 42.31C243.274 41.3567 242.234 39.8833 240.414 37.89L248.734 38.02L253.934 37.89C254.887 37.89 256.144 37.8467 257.704 37.76C259.264 37.6733 261.04 37.5 263.034 37.24L273.304 36.59C279.977 36.59 285.22 38.02 289.034 40.88C292.847 43.74 294.754 47.77 294.754 52.97C294.754 62.07 288.86 68.18 277.074 71.3L281.884 78.97L287.994 87.68L296.054 98.6L298.524 102.11C299.39 103.237 300.344 104.32 301.384 105.36C302.424 106.313 303.94 107.093 305.934 107.7L301.904 109.13C300.864 109.39 299.52 109.52 297.874 109.52C293.02 109.52 289.337 108.87 286.824 107.57C284.397 106.183 282.187 104.45 280.194 102.37C278.547 100.637 276.294 97.7767 273.434 93.79L264.724 80.92L260.564 74.68V98.86C260.564 101.633 260.694 103.453 260.954 104.32C261.3 105.1 261.69 105.837 262.124 106.53C262.644 107.137 263.424 107.96 264.464 109H240.154C241.714 107.18 242.754 105.62 243.274 104.32C243.794 103.02 244.054 101.2 244.054 98.86ZM260.434 70.39H261.734C272.827 70.39 278.374 65.3633 278.374 55.31C278.374 46.99 274.344 42.83 266.284 42.83L260.434 43.35V70.39Z" fill="#B4810C"/>
<path d="M47.821 130.909C46.3337 128.258 45.2667 126.576 44.62 125.865C44.232 125.283 43.4883 124.507 42.389 123.537C41.3543 122.567 39.867 121.759 37.927 121.112C37.0863 120.853 36.1487 120.627 35.114 120.433C34.0793 120.239 33.0447 120.142 32.01 120.142C26.966 120.142 22.9567 122.147 19.982 126.156C17.072 130.165 15.617 135.759 15.617 142.937C15.617 150.374 16.975 156.194 19.691 160.397C22.4717 164.6 26.3193 166.702 31.234 166.702L34.144 166.411L37.442 165.15V149.145C37.442 146.946 37.3127 145.491 37.054 144.78C36.86 144.004 36.0517 142.905 34.629 141.482H52.186C51.1513 142.84 50.4077 144.036 49.955 145.071C49.8257 145.588 49.7287 146.138 49.664 146.72C49.5993 147.237 49.567 148.046 49.567 149.145V152.055V162.143V162.531L49.664 165.247L50.44 167.284L46.463 168.545C43.2943 169.45 40.352 170.129 37.636 170.582C34.92 171.035 32.2363 171.261 29.585 171.261C21.5017 171.261 15.0027 168.804 10.088 163.889C5.17333 158.974 2.716 152.475 2.716 144.392C2.716 136.244 5.238 129.454 10.282 124.022C15.3907 118.525 21.728 115.777 29.294 115.777L32.592 115.874C33.4973 115.874 35.3727 116.197 38.218 116.844C41.0633 117.426 42.8417 117.717 43.553 117.717L45.396 117.523L47.53 117.038L47.821 130.909ZM58.0568 162.434L59.8028 157.875L70.8608 127.223L71.6368 124.798C72.0248 123.634 72.2188 122.761 72.2188 122.179C72.2188 120.756 71.5721 118.978 70.2788 116.844H85.1198L103.259 162.434C104.035 164.245 104.714 165.57 105.296 166.411C105.878 167.252 107.139 168.448 109.079 170H91.5218L91.9098 167.284C91.9098 166.12 91.4894 164.503 90.6488 162.434L84.9258 147.981H68.8238L63.7798 162.434C63.3271 163.921 63.1008 165.085 63.1008 165.926C63.1008 166.573 63.2624 167.187 63.5858 167.769C63.9091 168.351 64.5881 169.095 65.6228 170H52.2368C53.9181 168.836 55.1468 167.769 55.9228 166.799C56.6988 165.764 57.4101 164.309 58.0568 162.434ZM70.3758 143.228H83.1798L76.4868 126.059L70.3758 143.228ZM112.572 162.434V124.507C112.572 122.373 112.443 120.95 112.184 120.239C111.99 119.528 111.214 118.428 109.856 116.941L116.064 117.038L119.944 116.941C120.656 116.941 121.593 116.909 122.757 116.844C123.921 116.779 125.247 116.65 126.734 116.456L134.397 115.971C139.377 115.971 143.289 117.038 146.134 119.172C148.98 121.306 150.402 124.313 150.402 128.193C150.402 134.983 146.005 139.542 137.21 141.87L140.799 147.593L145.358 154.092L151.372 162.24L153.215 164.859C153.862 165.7 154.573 166.508 155.349 167.284C156.125 167.995 157.257 168.577 158.744 169.03L155.737 170.097C154.961 170.291 153.959 170.388 152.73 170.388C149.109 170.388 146.361 169.903 144.485 168.933C142.675 167.898 141.026 166.605 139.538 165.053C138.31 163.76 136.628 161.626 134.494 158.651L127.995 149.048L124.891 144.392V162.434C124.891 164.503 124.988 165.861 125.182 166.508C125.441 167.09 125.732 167.64 126.055 168.157C126.443 168.61 127.025 169.224 127.801 170H109.662C110.826 168.642 111.602 167.478 111.99 166.508C112.378 165.538 112.572 164.18 112.572 162.434ZM124.794 141.191H125.764C134.042 141.191 138.18 137.44 138.18 129.939C138.18 123.731 135.173 120.627 129.159 120.627L124.794 121.015V141.191ZM160.596 162.434V159.718L160.693 124.604C160.693 122.47 160.564 121.047 160.305 120.336C160.111 119.625 159.335 118.525 157.977 117.038H159.82L166.61 116.747L172.624 116.456L176.698 116.068L180.869 115.971C189.211 115.971 195.743 118.137 200.463 122.47C205.249 126.803 207.641 132.817 207.641 140.512C207.641 144.909 206.898 149.08 205.41 153.025C203.923 156.905 201.854 160.171 199.202 162.822C196.551 165.409 193.188 167.349 189.114 168.642C185.105 169.871 180.255 170.485 174.564 170.485L168.356 170.388L162.924 170H157.492C158.656 168.707 159.497 167.575 160.014 166.605C160.402 165.635 160.596 164.245 160.596 162.434ZM172.818 160.688V162.046C172.818 163.469 173.012 164.471 173.4 165.053C173.659 165.312 174.144 165.603 174.855 165.926C175.631 166.185 176.763 166.314 178.25 166.314C182.842 166.314 186.754 164.018 189.987 159.427C193.221 154.836 194.837 149.145 194.837 142.355C194.837 135.5 193.253 130.133 190.084 126.253C186.916 122.373 182.68 120.433 177.377 120.433C175.696 120.433 174.597 120.595 174.079 120.918C173.562 121.241 173.206 121.662 173.012 122.179L172.818 125.477V160.688ZM215.82 162.434V159.621L216.014 124.798C216.014 122.729 215.852 121.274 215.529 120.433C215.27 119.592 214.494 118.396 213.201 116.844H247.927V127.708L245.696 124.992C245.178 124.345 244.305 123.699 243.077 123.052C241.525 122.082 238.712 121.597 234.638 121.597H228.236V139.445H232.698C235.608 139.445 237.806 139.154 239.294 138.572C240.846 137.99 242.236 136.794 243.465 134.983V148.757C241.783 146.752 240.361 145.491 239.197 144.974C238.615 144.715 237.839 144.521 236.869 144.392C235.963 144.263 234.735 144.198 233.183 144.198H228.139V165.538H234.638C238.712 165.538 241.88 165.053 244.144 164.083C246.407 163.048 247.894 162.208 248.606 161.561C248.929 161.302 249.382 160.817 249.964 160.106C250.61 159.395 251.192 158.716 251.71 158.069L249.285 170H212.619C213.977 168.707 214.85 167.607 215.238 166.702C215.626 165.732 215.82 164.309 215.82 162.434ZM258.731 162.434V159.621L258.828 124.895C258.828 122.761 258.698 121.274 258.44 120.433C258.246 119.528 257.534 118.331 256.306 116.844H270.177L296.367 157.196V124.507C296.367 122.308 296.237 120.886 295.979 120.239C295.785 119.528 295.106 118.396 293.942 116.844H303.933C302.898 118.267 302.219 119.528 301.896 120.627C301.572 121.662 301.411 122.987 301.411 124.604V170H290.256L263.969 130.133V162.434C263.969 164.374 264.13 165.797 264.454 166.702C264.777 167.543 265.521 168.642 266.685 170H255.918C257.082 168.707 257.858 167.607 258.246 166.702C258.504 165.861 258.634 165.053 258.634 164.277C258.698 163.501 258.731 162.887 258.731 162.434Z" fill="#B4810C"/>
</svg>
