<svg width="208" height="123" viewBox="0 0 208 123" fill="none" xmlns="http://www.w3.org/2000/svg">
<path d="M3.92 53.54V51.51L4.06 26.38C4.06 24.8867 3.94333 23.8367 3.71 23.23C3.52333 22.6233 2.96333 21.76 2.03 20.64H27.09V28.48L25.48 26.52C25.1067 26.0533 24.4767 25.5867 23.59 25.12C22.47 24.42 20.44 24.07 17.5 24.07H12.88V36.95H16.1C18.2 36.95 19.7867 36.74 20.86 36.32C21.98 35.9 22.9833 35.0367 23.87 33.73V43.67C22.6567 42.2233 21.63 41.3133 20.79 40.94C20.37 40.7533 19.81 40.6133 19.11 40.52C18.4567 40.4267 17.57 40.38 16.45 40.38H12.81V55.78H17.5C20.44 55.78 22.7267 55.43 24.36 54.73C25.9933 53.9833 27.0667 53.3767 27.58 52.91C27.8133 52.7233 28.14 52.3733 28.56 51.86C29.0267 51.3467 29.4467 50.8567 29.82 50.39L28.07 59H1.61C2.59 58.0667 3.22 57.2733 3.5 56.62C3.78 55.92 3.92 54.8933 3.92 53.54ZM34.9568 53.54V51.51V26.24C34.9568 24.6533 34.8635 23.6267 34.6768 23.16C34.5368 22.6933 34.0468 21.8533 33.2068 20.64H45.7368C44.9435 21.62 44.4068 22.5067 44.1268 23.3C43.8935 24.0933 43.7768 25.0733 43.7768 26.24L43.9868 55.85H49.2368C50.6368 55.85 51.8268 55.78 52.8068 55.64C53.8335 55.5 54.7668 55.2433 55.6068 54.87C57.1935 54.1233 58.2435 53.54 58.7568 53.12C59.2701 52.7 59.9935 51.79 60.9268 50.39L58.8968 59H32.7168C33.6035 58.1133 34.1868 57.32 34.4668 56.62C34.7935 55.8733 34.9568 54.8467 34.9568 53.54ZM64.0746 53.54V51.65L64.1446 26.38C64.1446 24.84 64.0746 23.8133 63.9346 23.3C63.7946 22.74 63.3746 21.8533 62.6746 20.64H74.7846C74.0846 21.8067 73.5946 22.74 73.3146 23.44C73.0813 24.2333 72.9646 25.2367 72.9646 26.45V53.54C72.9646 54.94 73.0346 55.9433 73.1746 56.55C73.3146 57.1567 73.7813 57.9733 74.5746 59H62.2546C63.0013 58.0667 63.4913 57.2267 63.7246 56.48C63.9579 55.7333 64.0746 54.7533 64.0746 53.54ZM81.4559 53.54L90.1359 41.01L81.3159 26.31C80.5693 24.9567 79.8926 23.9767 79.2859 23.37C79.0059 22.9967 78.6559 22.6 78.2359 22.18C77.8159 21.7133 77.2793 21.2 76.6259 20.64H89.5059C89.5059 21.9467 89.5759 22.8567 89.7159 23.37C89.9026 23.8833 90.4159 24.8633 91.2559 26.31L95.5959 33.45L100.356 26.24L101.616 24.14C101.896 23.58 102.036 23.1133 102.036 22.74L101.616 20.64H110.576C109.129 21.6667 108.009 22.5767 107.216 23.37C106.796 23.79 106.353 24.3033 105.886 24.91C105.419 25.5167 105.093 25.96 104.906 26.24L97.6259 36.88L107.566 53.54C107.799 53.96 108.056 54.38 108.336 54.8C108.803 55.5 109.199 56.06 109.526 56.48C109.899 56.9 110.389 57.3667 110.996 57.88C111.323 58.16 111.766 58.5333 112.326 59H99.2359L99.3059 57.74C99.3059 57.0867 99.2126 56.5033 99.0259 55.99C98.8859 55.43 98.4426 54.6133 97.6959 53.54L92.3059 44.23L86.0059 53.54L84.6759 55.71L84.1859 56.97C84.1859 57.39 84.4193 58.0667 84.8859 59H75.2259C76.9059 58.0667 78.1193 57.25 78.8659 56.55C79.6593 55.85 80.5226 54.8467 81.4559 53.54ZM114.592 53.54V51.65L114.662 26.38C114.662 24.84 114.592 23.8133 114.452 23.3C114.312 22.74 113.892 21.8533 113.192 20.64H125.302C124.602 21.8067 124.112 22.74 123.832 23.44C123.599 24.2333 123.482 25.2367 123.482 26.45V53.54C123.482 54.94 123.552 55.9433 123.692 56.55C123.832 57.1567 124.299 57.9733 125.092 59H112.772C113.519 58.0667 114.009 57.2267 114.242 56.48C114.476 55.7333 114.592 54.7533 114.592 53.54ZM131.414 53.54V26.17C131.414 24.63 131.32 23.6033 131.134 23.09C130.994 22.5767 130.434 21.7833 129.454 20.71L133.934 20.78L136.734 20.71C137.247 20.71 137.924 20.6867 138.764 20.64C139.604 20.5933 140.56 20.5 141.634 20.36L147.164 20.01C150.757 20.01 153.58 20.78 155.634 22.32C157.687 23.86 158.714 26.03 158.714 28.83C158.714 33.73 155.54 37.02 149.194 38.7L151.784 42.83L155.074 47.52L159.414 53.4L160.744 55.29C161.21 55.8967 161.724 56.48 162.284 57.04C162.844 57.5533 163.66 57.9733 164.734 58.3L162.564 59.07C162.004 59.21 161.28 59.28 160.394 59.28C157.78 59.28 155.797 58.93 154.444 58.23C153.137 57.4833 151.947 56.55 150.874 55.43C149.987 54.4967 148.774 52.9567 147.234 50.81L142.544 43.88L140.304 40.52V53.54C140.304 55.0333 140.374 56.0133 140.514 56.48C140.7 56.9 140.91 57.2967 141.144 57.67C141.424 57.9967 141.844 58.44 142.404 59H129.314C130.154 58.02 130.714 57.18 130.994 56.48C131.274 55.78 131.414 54.8 131.414 53.54ZM140.234 38.21H140.934C146.907 38.21 149.894 35.5033 149.894 30.09C149.894 25.61 147.724 23.37 143.384 23.37L140.234 23.65V38.21Z" fill="white"/>
<path d="M31.65 68.85C30.8833 67.4833 30.3333 66.6167 30 66.25C29.8 65.95 29.4167 65.55 28.85 65.05C28.3167 64.55 27.55 64.1333 26.55 63.8C26.1167 63.6667 25.6333 63.55 25.1 63.45C24.5667 63.35 24.0333 63.3 23.5 63.3C20.9 63.3 18.8333 64.3333 17.3 66.4C15.8 68.4667 15.05 71.35 15.05 75.05C15.05 78.8833 15.75 81.8833 17.15 84.05C18.5833 86.2167 20.5667 87.3 23.1 87.3L24.6 87.15L26.3 86.5V78.25C26.3 77.1167 26.2333 76.3667 26.1 76C26 75.6 25.5833 75.0333 24.85 74.3H33.9C33.3667 75 32.9833 75.6167 32.75 76.15C32.6833 76.4167 32.6333 76.7 32.6 77C32.5667 77.2667 32.55 77.6833 32.55 78.25V79.75V84.95V85.15L32.6 86.55L33 87.6L30.95 88.25C29.3167 88.7167 27.8 89.0667 26.4 89.3C25 89.5333 23.6167 89.65 22.25 89.65C18.0833 89.65 14.7333 88.3833 12.2 85.85C9.66667 83.3167 8.4 79.9667 8.4 75.8C8.4 71.6 9.7 68.1 12.3 65.3C14.9333 62.4667 18.2 61.05 22.1 61.05L23.8 61.1C24.2667 61.1 25.2333 61.2667 26.7 61.6C28.1667 61.9 29.0833 62.05 29.45 62.05L30.4 61.95L31.5 61.7L31.65 68.85ZM49.2762 71.3C49.2762 69.9667 49.0595 69.0333 48.6262 68.5C48.2262 67.9333 47.5095 67.65 46.4762 67.65C44.9095 67.65 43.5928 68.1167 42.5262 69.05L40.2262 71.2L38.3262 73.6V67.5L39.8762 66.85C42.2428 65.95 44.6428 65.5 47.0762 65.5C48.2428 65.5 49.3595 65.6 50.4262 65.8C51.4928 66 52.3428 66.3333 52.9762 66.8C53.6428 67.2 54.1428 67.7833 54.4762 68.55C54.8095 69.2833 54.9762 70.4 54.9762 71.9V85.15C54.9762 86.1833 55.0262 86.9167 55.1262 87.35C55.2595 87.75 55.6595 88.3 56.3262 89H49.6762L49.5762 86.3L48.3762 87.4C46.7095 88.8667 44.7095 89.6 42.3762 89.6C40.6428 89.6 39.1762 89.1 37.9762 88.1C36.8095 87.1 36.2262 85.8333 36.2262 84.3C36.2262 82.3333 36.7428 81.0333 37.7762 80.4L40.2762 78.9L41.6762 78.15L44.2762 76.9L46.3762 75.85L49.2762 74.3V71.3ZM49.3262 76.6L48.1762 77.25L46.3262 78.15C43.4595 79.55 42.0262 81.2167 42.0262 83.15C42.0262 84.0167 42.3262 84.7833 42.9262 85.45C43.5595 86.0833 44.3262 86.4 45.2262 86.4C46.4928 86.4 47.4928 85.9333 48.2262 85C48.9595 84.0667 49.3262 82.8 49.3262 81.2V76.6ZM60.4324 85.2V83.7V69.85C60.4324 69.4167 60.4324 68.9667 60.4324 68.5C60.3324 68.1667 60.2491 67.85 60.1824 67.55C60.1158 67.2167 59.7991 66.6667 59.2324 65.9H66.1324V69.05C66.7324 68.3167 67.2658 67.8 67.7324 67.5C68.1324 67.1667 68.6491 66.85 69.2824 66.55C69.9158 66.25 70.4824 66.05 70.9824 65.95L73.2324 65.6V72.8L72.5824 71.7L71.7324 70.55C71.2991 70.0167 70.5658 69.75 69.5324 69.75C67.2658 69.75 66.1324 71.4167 66.1324 74.75V85.2C66.1324 86.2667 66.1824 86.9667 66.2824 87.3C66.3824 87.6333 66.7324 88.2 67.3324 89H58.9824C59.5824 88.2667 59.9658 87.7 60.1324 87.3C60.3324 86.8667 60.4324 86.1667 60.4324 85.2ZM90.1238 57.05C90.1238 56.1167 90.0572 55.45 89.9238 55.05C89.8238 54.6167 89.4738 53.9167 88.8738 52.95H95.8238V85.15C95.8238 86.1833 95.8738 86.9 95.9738 87.3C96.1072 87.7 96.4905 88.2667 97.1238 89H90.1738V86.3L89.2738 87.3C87.7738 88.8 85.7405 89.55 83.1738 89.55C80.4405 89.55 78.2238 88.5667 76.5238 86.6C74.8572 84.6333 74.0238 82.0667 74.0238 78.9C74.0238 75 75.2072 71.8833 77.5738 69.55C79.9738 67.2167 83.1405 66.05 87.0738 66.05H88.8238L90.1238 66.1V57.05ZM90.1738 80.7V73.7C90.1738 71.6333 89.9072 70.1833 89.3738 69.35C88.8738 68.4833 88.0072 68.05 86.7738 68.05C84.8405 68.05 83.2072 68.9667 81.8738 70.8C80.5738 72.6 79.9238 74.9167 79.9238 77.75C79.9238 79.1833 80.0405 80.4167 80.2738 81.45C80.5072 82.45 80.9238 83.4 81.5238 84.3C82.5905 85.9667 84.0238 86.8 85.8238 86.8C87.2572 86.8 88.2738 86.3833 88.8738 85.55C89.4738 84.7167 89.8405 83.9833 89.9738 83.35L90.1738 80.7ZM105.955 74.55L105.855 76.8C105.855 79.7 106.455 81.9833 107.655 83.65C108.888 85.3167 110.638 86.15 112.905 86.15C114.238 86.15 115.838 85.6833 117.705 84.75L119.205 83.8L120.355 82.8L119.505 86.4L118.255 87.3C116.155 88.8333 113.788 89.6 111.155 89.6C107.855 89.6 105.138 88.4667 103.005 86.2C100.905 83.9333 99.8551 81.0167 99.8551 77.45C99.8551 73.95 100.922 71.0833 103.055 68.85C105.222 66.5833 107.955 65.45 111.255 65.45C114.188 65.45 116.538 66.2667 118.305 67.9C120.105 69.5 121.005 71.7167 121.005 74.55H105.955ZM106.205 72.75H112.555L114.355 72.7C114.522 72.7 114.738 72.55 115.005 72.25C115.105 72.0167 115.188 71.6333 115.255 71.1C115.255 70.0667 114.872 69.2167 114.105 68.55C113.338 67.85 112.388 67.5 111.255 67.5C108.655 67.5 106.972 69.25 106.205 72.75ZM124.886 85.15V83.9L124.936 69.85C124.936 68.8833 124.886 68.25 124.786 67.95C124.686 67.65 124.569 67.35 124.436 67.05C124.302 66.75 124.069 66.3667 123.736 65.9H130.686V68.4L131.986 67.4C133.819 66.0667 135.919 65.4 138.286 65.4C140.686 65.4 142.386 65.8667 143.386 66.8C144.419 67.7 145.019 68.4833 145.186 69.15C145.386 69.7833 145.486 71.0167 145.486 72.85V85.2C145.486 86.2333 145.536 86.9333 145.636 87.3C145.769 87.6667 146.186 88.2333 146.886 89H139.436L139.836 85.05L139.886 82.9V75.2V73.9C139.886 73.6333 139.886 73.35 139.886 73.05C139.819 72.7167 139.786 72.4833 139.786 72.35C139.786 72.1167 139.752 71.85 139.686 71.55C139.652 71.25 139.569 70.9333 139.436 70.6C138.869 69.2333 137.602 68.55 135.636 68.55C133.969 68.55 132.636 69.1167 131.636 70.25C131.302 70.5833 131.019 71.0833 130.786 71.75L130.586 74.55V85.2C130.586 86.2333 130.636 86.9333 130.736 87.3C130.836 87.6667 131.186 88.2333 131.786 89H123.436C124.036 88.2667 124.436 87.7 124.636 87.3C124.802 86.8 124.886 86.0833 124.886 85.15Z" fill="white"/>
<path d="M166.623 103.125L165.844 96.2443L154.362 94.5934L151.627 100.969L141.135 99.4605L157.768 65.6334L170.487 67.4622L177.065 104.627L166.623 103.125ZM164.287 82.129C164.212 81.4784 164.109 80.5544 163.978 79.3569C163.852 78.1264 163.731 76.8629 163.614 75.5665C163.497 74.27 163.413 73.214 163.362 72.3984C163.117 73.1713 162.76 74.1303 162.292 75.2754C161.857 76.4252 161.408 77.5562 160.945 78.6683C160.515 79.7851 160.145 80.7252 159.833 81.4886L157.466 87.0585L164.989 88.1401L164.287 82.129ZM197.138 107.513L178.727 104.866L179.51 99.4216L184.157 98.3722L187.195 77.2395L183.025 74.973L183.808 69.529L202.219 72.176L201.436 77.62L196.797 78.6199L193.758 99.7526L197.921 102.069L197.138 107.513Z" fill="#49DE80"/>
</svg>
